{"title":"Heist(2015)MPEG-4[DaScubaDude]","uid":13408651,"size":916143019,"categoryP":"video","categoryS":"movies","magnet":"?xt=urn:btih:6abc1826ccd94b6b0db64d608e86212b8cae766e&amp;dn=Heist%282015%29MPEG-4%5BDaScubaDude%5D&amp;tr=udp%3A%2F%2Ftracker.leechers-paradise.org%3A6969&amp;tr=udp%3A%2F%2Fzer0day.ch%3A1337&amp;tr=udp%3A%2F%2Fopen.demonii.com%3A1337&amp;tr=udp%3A%2F%2Ftracker.coppersurfer.tk%3A6969&amp;tr=udp%3A%2F%2Fexodus.desync.com%3A6969","seeders":0,"leechers":1,"uploader":"dascuba","files":1,"time":1454456554,"description":"Heist (2015)\r\nR | 1h 33min | Action, Crime, Thriller | 11 November 2015 \r\nA father is without the means to pay for his daughter's medical treatment. As a last resort, he partners with a greedy co-worker to rob a casino. When things go awry they're forced to hijack a city bus.\r\nDirector: Scott Mann\r\nWriters: Stephen Cyrus Sepher (original screenplay by), Stephen Cyrus Sepher (story) | 1 more credit »\r\nStars: Robert De Niro, Gina Carano, Jeffrey Dean Morgan \r\n\r\nGeneral\r\nComplete name                            :HeistHeist_Title1.mp4\r\nFormat                                   : MPEG-4\r\nFormat profile                           : Base Media\r\nCodec ID                                 : isom\r\nFile size                                : 874 MiB\r\nDuration                                 : 1h 32mn\r\nOverall bit rate                         : 1 320 Kbps\r\nMovie name                               : Heist\r\nWriting application                      : Lavf54.6.100\r\n\r\nVideo\r\nID                                       : 1\r\nFormat                                   : AVC\r\nFormat/Info                              : Advanced Video Codec\r\nFormat profile                           :   \r\nFormat settings, CABAC                   : No\r\nFormat settings, ReFrames                : 6 frames\r\nCodec ID                                 : avc1\r\nCodec ID/Info                            : Advanced Video Coding\r\nDuration                                 : 1h 32mn\r\nBit rate                                 : 1 186 Kbps\r\nWidth                                    : 720 pixels\r\nHeight                                   : 404 pixels\r\nDisplay aspect ratio                     : 16:9\r\nFrame rate mode                          : Constant\r\nFrame rate                               : 29.970 fps\r\nColor space                              : YUV\r\nChroma subsampling                       : 4:2:0\r\nBit depth                                : 8 bits\r\nScan type                                : Progressive\r\nBits/(Pixel*Frame)                       : 0.136\r\nStream size                              : 785 MiB (90%)\r\n\r\nAudio\r\nID                                       : 2\r\nFormat                                   : AAC\r\nFormat/Info                              : Advanced Audio Codec\r\nFormat profile                           : LC\r\nCodec ID                                 : 40\r\nDuration                                 : 1h 32mn\r\nBit rate mode                            : Constant\r\nBit rate                                 : 128 Kbps\r\nChannel(s)                               : 2 channels\r\nChannel positions                        : Front: L R\r\nSampling rate                            : 44.1 KHz\r\nCompression mode                         : Lossy\r\nStream size                              : 84.6 MiB (10%)","torrent":{"xt":"urn:btih:6abc1826ccd94b6b0db64d608e86212b8cae766e","amp;dn":"Heist%282015%29MPEG-4%5BDaScubaDude%5D","amp;tr":["udp%3A%2F%2Ftracker.leechers-paradise.org%3A6969","udp%3A%2F%2Fzer0day.ch%3A1337","udp%3A%2F%2Fopen.demonii.com%3A1337","udp%3A%2F%2Ftracker.coppersurfer.tk%3A6969","udp%3A%2F%2Fexodus.desync.com%3A6969"],"infoHash":"6abc1826ccd94b6b0db64d608e86212b8cae766e","infoHashBuffer":{"type":"Buffer","data":[106,188,24,38,204,217,75,107,13,182,77,96,142,134,33,43,140,174,118,110]},"announce":[],"urlList":[]}}